<?xml version="1.0" encoding="utf-8"?>
<!-- Generator: Adobe Illustrator 22.0.1, SVG Export Plug-In . SVG Version: 6.00 Build 0)  -->
<svg version="1.1" id="Layer_1" xmlns="http://www.w3.org/2000/svg" xmlns:xlink="http://www.w3.org/1999/xlink" x="0px" y="0px"
	 viewBox="0 0 1410.5 382.9" style="enable-background:new 0 0 1410.5 382.9;" xml:space="preserve">
<style type="text/css">
	.st0{fill:#25ABE2;}
	.st1{fill:#5A5B5D;}
	.st2{fill:#FFFFFF;}
	.st3{fill:none;stroke:#AFAFAF;stroke-width:14;stroke-miterlimit:10;}
	.st4{fill:none;}
	.st5{fill:#00AEEF;stroke:#FFFFFF;stroke-width:4;stroke-miterlimit:10;}
	.st6{fill:none;stroke:#1D76BB;stroke-width:14;stroke-miterlimit:10;}
	.st7{fill:#808184;stroke:#FFFFFF;stroke-width:3;stroke-miterlimit:10;}
	.st8{fill:#6E6F71;stroke:#FFFFFF;stroke-width:3;stroke-miterlimit:10;}
</style>
<g id="Layer_4">
	<g>
		<path class="st0" d="M463.3,120c-0.6,28.3-1.8,56.4-1.1,86c5.4-6.6,10.8-12,14.6-18.3c2.5-4.1,5.3-5.1,8.8-4
			c15,4.9,29,11.5,34.6,27.7c3.9,11.3,3.4,23.3,2.3,35.1c-1.3,15.2-3.4,30.3-3.9,45.5c-0.1,1.8-0.1,3.5-1.6,4.9
			c-11.5,11.2-23.8,21.5-38.2,30.2c1.5-14.1,2.4-27.8,4.4-41.3c3.1-20.3-0.3-40-4.3-59.8c-1-4.8-1.9-9.5-3.1-14.3
			c-0.7-3-2.3-3.6-4.3-0.8c-5.6,7.7-10.9,15-9.9,25.9c1.7,19.5-1.2,39.1,0.2,58.7c0.2,2.5-0.5,3.4-3.1,3.8
			c-12,1.5-24.1,3.3-36.1,5.1c-3,0.5-3.3-0.8-3.1-3.2c4.2-54.7,2.9-109.5,3.1-164.3c0-3.2,1.1-4.7,4-5.3c12.3-2.4,23.5-8.1,35.3-12
			C462.3,119.8,462.5,119.9,463.3,120z"/>
		<path class="st0" d="M602.8,259c-7.5,8.9-13.7,16.8-19.6,25.1c-5.8,8-12.9,15.1-19.4,22.6c-0.8,1-1.7,1.2-2.9,0.8
			c-1-0.3-2-0.8-3.1-1c-13-2.7-18.8-10.1-19-24c-0.3-16.6-3.4-33.2,0.4-49.8c2.1-9.3,5.8-17.7,12.4-25c5.7-6.3,10.5-13.3,16.4-19.4
			c4.4-4.6,9.2-5.6,14.6-4.5c10.1,2.1,20.1,4.7,30.1,7.1c18.4,4.3,25.1,14.6,27.1,32.6c1.5,13.6,0.8,27.2,0.6,40.8
			c-0.1,9.8-0.8,19.6,0.4,29.4c0.2,1.6,0.9,3.6-1.8,4.4c-12.7,3.3-25.2,7.3-38.1,11.9C602.5,292.9,603,276.7,602.8,259z
			 M577.2,268.8c1.1-0.7,1.5-0.8,1.7-1.1c8.2-10.3,13.7-22.4,20.9-33.3c1.7-2.6,0.2-4.4-1.4-6.2c-5.6-5.9-12.9-9.2-20.5-11.7
			c-2.6-0.9-3.6,0-3.4,2.8c0.4,5.8,0.6,11.6,0.9,17.3C576,247.2,576.6,257.7,577.2,268.8z"/>
		<path class="st0" d="M795.9,309.3c1.4-16.3,2.2-32.5,1.8-49.8c-2.4,2.6-4.4,4.5-6.1,6.6c-10.4,12.8-20.9,25.6-31.1,38.6
			c-2.2,2.8-4.1,3-7.3,2.1c-11.5-3.3-19.5-8.2-19.3-22.6c0.2-12.2-2-24.5-1.7-36.9c0.3-16.8,6.4-31.4,17.1-44.1
			c4.3-5.1,9.4-9.6,13.6-14.8c4.2-5.2,9.4-5.6,15.1-4.3c9.5,2.1,19,4.7,28.6,6.5c18.1,3.3,26,16.9,28.1,33.4
			c1.5,11.8,0.8,23.6,0.7,35.3c-0.1,11.4-1.2,22.8,0.3,34.3c0.2,1.8,0.9,3.8-2.2,4.6C821.1,301.6,808.7,305.5,795.9,309.3z
			 M772.1,268.1c10.3-10.4,15.4-22.7,22.7-33.6c1.6-2.4,0.5-4.1-1-5.8c-5.8-6.7-13.9-9.5-22-12.2c-2.7-0.9-2.3,1.3-2.3,2.9
			c0.3,5.8,0.6,11.6,0.9,17.3C771,246.8,771.5,256.8,772.1,268.1z"/>
		<path class="st0" d="M666.5,203.5c0-21.6,0.2-43.2-0.2-64.7c-0.1-5.6,2.4-7.6,6.9-8c10.5-0.8,19.8-5.4,29.7-8.3
			c4.1-1.2,5.7-1.3,5.5,3.8c-1.8,31.7-3.3,63.4-4.9,95.1c-0.6,12.5-1.1,25-1.8,37.5c-0.2,3.2,1.1,5,3.4,6.7c4.8,3.6,9.4,7.4,14.1,11
			c1.8,1.4,2.1,2.2,0.6,4.2c-2.9,3.9-6,7.6-9.3,11.1c-4.1,4.3-7.5,9.3-10.8,14.3c-1.9,2.8-3.7,3.4-6.7,2.2
			c-17.9-7.2-28.2-22.5-28.2-41.8c0-10.5,0-21,0-31.6c0-10.5,0-21,0-31.5C665.3,203.5,665.9,203.5,666.5,203.5z"/>
		<path class="st0" d="M861.3,200.1c0-20.3,0.2-40.6-0.1-61c-0.1-5.2,1.5-7.8,6.6-8.3c10.7-1.1,20.5-5.7,30.7-8.6
			c3.9-1.1,5.1-0.8,4.8,3.5c-1.7,31.7-3.3,63.4-4.9,95.1c-0.6,12.9-1.1,25.7-1.8,38.6c-0.1,2.5,0.7,4.1,2.6,5.4
			c2.5,1.8,5,3.7,7.2,5.8c6,5.7,6.2,11.7,1.1,18.2c-4.4,5.6-8.7,11.2-12.7,17c-2,2.9-3.8,3.8-7.1,2.4c-16.8-7-26-19.6-27.9-37.5
			c-2.3-21,0.7-42,0.5-63.1c0-2.5,0.2-5.1,0.3-7.6C860.9,200.1,861.1,200.1,861.3,200.1z"/>
		<path class="st1" d="M939.9,232.1c7.2,0,14.5-0.3,21.6,1.5c14,3.5,19.8,17.8,11.7,29.7c-2.2,3.3-2.8,4.9,0.3,8.3
			c9.3,10.2,4.5,30-8.5,34.8c-13.1,4.9-26.9,2.4-40.4,1.7c-2.9-0.2-2.3-2.8-2.2-4.7c0.3-10,1-19.9,1-29.9c0-12-0.4-23.9-1-35.9
			c-0.3-4.6,1.4-5.8,5.5-5.6C932,232.2,936,232.1,939.9,232.1z M948.6,291.1c4,0,8.3,0.1,9.7-4.8c0.9-3.2,0-6.4-3.1-7.9
			c-4.2-2-8.7-1.5-13.1-0.5c-0.3,0.1-0.5,0.5-0.6,0.8C938.2,284.7,942,291.2,948.6,291.1z M947.7,248c-6.7-0.1-6.5-0.1-6.9,6.2
			c-0.3,4.4,0.8,6.7,5.8,6.5c6.9-0.3,10.3-1.8,10.5-5.9C957.4,250.5,954.1,248.2,947.7,248z"/>
		<path class="st1" d="M982.4,269.5c-1.7-12.2,3.4-22.6,12.6-31.2c11.6-10.8,31.8-10.8,41.4,0.3c11.2,12.8,15.3,27.9,10.8,44.5
			c-2.2,7.9-6.3,15.2-12.7,20.4c-12.5,10.3-30.6,8.6-41.7-3.6C986.8,293.3,981.1,285.9,982.4,269.5z M1031.4,269.1
			c0.3-1.8-0.4-4.3-1.1-6.7c-3.6-11.4-15.5-14.6-24.3-6.7c-6.6,6-8.1,17.2-3.4,25.9c3.5,6.5,11.3,9.2,18,6.4
			C1027.7,285.1,1031.5,278.8,1031.4,269.1z"/>
		<path class="st1" d="M1117.7,270.2c0-10.9,0.1-21.8-0.1-32.6c-0.1-3.3,0.7-5.1,4.4-5.2c9.8-0.3,19.6-0.8,29.3,0.9
			c13.1,2.3,21.4,9.7,24.8,23.2c3.6,14.4,2.3,27.7-5.7,40c-5,7.6-12.6,11.4-21.6,11.7c-8.9,0.3-17.8-0.1-26.7,0.1
			c-3.9,0.1-4.4-1.6-4.4-4.9C1117.8,292.3,1117.7,281.2,1117.7,270.2z M1135.9,270.2L1135.9,270.2c0,4,0,8,0,11.9
			c0.1,8.5,2.2,10.3,10.7,8.5c1.6-0.3,3.1-1,4.5-1.8c9-5.2,12.8-23,6.3-31.2c-4.3-5.4-9.6-9.3-17.3-8.1c-2.9,0.5-4.4,1.6-4.3,4.9
			C1136.1,259.7,1135.9,265,1135.9,270.2z"/>
		<path class="st1" d="M1056.4,270c0-10.9,0.1-21.8-0.1-32.6c-0.1-3.2,0.6-4.6,4-4.6c8.9-0.1,17.8-0.9,26.6-0.6
			c9.9,0.3,18.4,4.2,22,14c3.8,10.2,3.5,20.7-4.9,28.8c-3.8,3.6-3.5,6.5-1.4,10.2c3.5,6.1,5.8,12.9,8.5,19.4c1.2,3,0.5,4-2.6,3.8
			c-0.2,0-0.4,0-0.5,0c-14.8,0.9-14.8,0.9-19.9-13.1c-1.1-2.9-2.2-5.7-3.3-8.6c-1.6-4.2-5.2-4.3-8.6-3.5s-1.6,3.9-1.6,6
			c0.1,4.9,0.5,9.8,0.9,14.7c0.3,3.1-0.4,4.5-4,4.6c-15.7,0.8-15.6,1-15.4-14.5C1056.5,285.9,1056.4,278,1056.4,270L1056.4,270z
			 M1080,268.5c9.6,0.2,13.6-4.1,12.3-11.9c-0.9-5.5-6-8.4-13.4-8.1c-6.2,0.3-4.5,4.8-4.8,8.3c-0.1,1.6,0.2,3.3-0.1,4.9
			C1073,267.5,1076.2,268.9,1080,268.5z"/>
		<path class="st1" d="M1240.1,270.2c0.4-11.1,0.9-22.2-0.1-33.2c-0.2-2.1-0.3-4.1,2.7-4.2c11.4-0.4,22.8-1.9,34.2,0
			c9,1.5,14.6,7.5,16.8,15.8c2.6,9.9,1.5,19.5-6.5,27.2c-3.4,3.3-2,6.7-0.3,9.9c3.2,5.9,5.4,12.3,8,18.4c1.2,2.7,1,4.1-2.7,4.3
			c-15,0.9-15,1-20.2-13.1c-1-2.7-2.1-5.4-3.1-8.1c-1.3-3.3-3.6-4.6-7.2-4.4c-2.8,0.2-3.9,1-3.7,3.8c0.5,6,0.7,12,1.2,17.9
			c0.2,2.9-0.8,3.8-3.6,3.8c-19.3-0.3-15.8,2.8-15.6-15.3C1240.2,285.4,1240.1,277.8,1240.1,270.2z M1263.5,268.5
			c10.4,0.3,15.3-6.2,11.8-14.2c-1.9-4.3-8.2-6.8-14.1-5.7c-5.5,1.1-2.6,5.4-3.2,8.3c-0.3,1.6,0.2,3.3-0.1,4.9
			C1257,267.3,1259.7,268.9,1263.5,268.5z"/>
		<path class="st1" d="M1185.5,270.5c0-11.2,0.1-22.5-0.1-33.7c-0.1-3.3,0.6-4.7,4.1-4.5c12.3,0.8,24.7,0.7,37,0
			c2.7-0.1,4.5,0.2,4.4,3.7c-0.1,4.9,3,10.9,0.3,14.2s-8.8-0.3-13.4,0.1c-2.9,0.2-5.8,0.1-8.7-0.1c-3.5-0.3-4.9,1.1-4.8,4.7
			c0.2,3.2,0.5,5.8,4.7,5.7c6-0.3,12-0.1,17.9-0.7c3.3-0.3,4.1,0.6,3.9,3.7c-0.3,4.2-0.3,8.3-0.4,12.5c0,2.5-0.8,3.8-3.6,3.2
			c-5.7-1.1-11.6-0.6-17.4-0.6c-2.4,0-5.3-0.9-5.2,3.4c0.1,3.6-0.2,7.2,4.8,7.5c6.3,0.4,12.7,0.6,19-0.5c4.6-0.8,5.8,0.7,5.2,5.1
			c-0.6,4.5,0.2,9.8-2.4,13.2c-3,3.9-8.3,0.6-12.6,0.8c-9,0.4-18.2-0.3-27.2,0.2c-5.1,0.2-6-1.7-5.8-6.2c0.3-10.5,0.1-21,0.1-31.5
			C1185.3,270.5,1185.4,270.5,1185.5,270.5z"/>
		<path class="st2" d="M948.6,291.1c-6.6,0-10.4-6.5-7.2-12.3c0.2-0.3,0.4-0.8,0.6-0.8c4.4-1,9-1.5,13.1,0.5c3.1,1.5,4,4.7,3.1,7.9
			C956.9,291.2,952.6,291.1,948.6,291.1z"/>
		<path class="st2" d="M947.7,248c6.4,0.1,9.8,2.5,9.5,6.8c-0.2,4-3.6,5.6-10.5,5.9c-5,0.2-6.1-2-5.8-6.5
			C941.2,247.9,941,247.9,947.7,248z"/>
	</g>
</g>
<g id="Layer_1_1_">
	<g>
		<path class="st3" d="M357,218.3L231.6,343.8c-6.4,6.4-17,6.4-23.4,0L82.7,218.3c-6.4-6.4-6.4-17,0-23.4L208.2,69.5
			c6.4-6.4,17-6.4,23.4,0L357,195C363.5,201.4,363.5,211.9,357,218.3z"/>
		<line class="st4" x1="168.2" y1="145.3" x2="168.2" y2="145.3"/>
	</g>
</g>
<g id="Layer_4_1_">
	<g>
		<path class="st0" d="M172.1,174.4c-0.2,7.4-0.5,14.7-0.3,22.5c1.4-1.7,2.8-3.1,3.8-4.8c0.6-1.1,1.4-1.3,2.3-1c3.9,1.3,7.6,3,9,7.3
			c1,2.9,0.9,6.1,0.6,9.2c-0.3,4-0.9,7.9-1,11.9c0,0.5,0,0.9-0.4,1.3c-3,2.9-6.2,5.6-9.9,7.9c0.4-3.7,0.6-7.3,1.2-10.8
			c0.8-5.3-0.1-10.5-1.1-15.6c-0.3-1.2-0.5-2.5-0.8-3.7c-0.2-0.8-0.6-0.9-1.1-0.2c-1.5,2-2.8,3.9-2.6,6.8c0.5,5.1-0.3,10.2,0.1,15.4
			c0,0.6-0.1,0.9-0.8,1c-3.1,0.4-6.3,0.9-9.4,1.3c-0.8,0.1-0.9-0.2-0.8-0.8c1.1-14.3,0.8-28.6,0.8-42.9c0-0.8,0.3-1.2,1-1.4
			c3.2-0.6,6.1-2.1,9.2-3.1C171.9,174.4,171.9,174.4,172.1,174.4z"/>
		<path class="st0" d="M208.6,210.7c-2,2.3-3.6,4.4-5.1,6.5c-1.5,2.1-3.4,3.9-5.1,5.9c-0.2,0.3-0.5,0.3-0.8,0.2
			c-0.3-0.1-0.5-0.2-0.8-0.3c-3.4-0.7-4.9-2.6-5-6.2c-0.1-4.3-0.9-8.7,0.1-13c0.6-2.4,1.5-4.6,3.2-6.5c1.5-1.6,2.8-3.5,4.3-5.1
			c1.1-1.2,2.4-1.5,3.8-1.2c2.6,0.5,5.3,1.2,7.9,1.9c4.8,1.1,6.5,3.8,7.1,8.5c0.4,3.6,0.2,7.1,0.2,10.7c0,2.6-0.2,5.1,0.1,7.7
			c0,0.4,0.3,0.9-0.5,1.1c-3.3,0.9-6.6,1.9-9.9,3.1C208.5,219.6,208.6,215.3,208.6,210.7z M201.9,213.3c0.3-0.2,0.4-0.2,0.5-0.3
			c2.2-2.7,3.6-5.8,5.5-8.7c0.5-0.7,0-1.2-0.4-1.6c-1.5-1.6-3.4-2.4-5.3-3c-0.7-0.2-0.9,0-0.9,0.7c0.1,1.5,0.2,3,0.2,4.5
			C201.6,207.6,201.7,210.4,201.9,213.3z"/>
		<path class="st0" d="M259,223.9c0.4-4.2,0.6-8.5,0.5-13c-0.6,0.7-1.1,1.2-1.6,1.7c-2.7,3.3-5.4,6.7-8.1,10.1
			c-0.6,0.7-1.1,0.8-1.9,0.5c-3-0.9-5.1-2.2-5-5.9c0-3.2-0.5-6.4-0.5-9.6c0.1-4.4,1.7-8.2,4.5-11.5c1.1-1.3,2.5-2.5,3.6-3.9
			c1.1-1.4,2.5-1.4,3.9-1.1c2.5,0.6,5,1.2,7.5,1.7c4.7,0.9,6.8,4.4,7.3,8.7c0.4,3.1,0.2,6.2,0.2,9.2c0,3-0.3,6,0.1,9
			c0.1,0.5,0.2,1-0.6,1.2C265.6,221.8,262.3,222.8,259,223.9z M252.8,213.1c2.7-2.7,4-5.9,5.9-8.8c0.4-0.6,0.1-1.1-0.3-1.5
			c-1.5-1.7-3.6-2.5-5.7-3.2c-0.7-0.2-0.6,0.3-0.6,0.8c0.1,1.5,0.2,3,0.2,4.5C252.5,207.5,252.6,210.1,252.8,213.1z"/>
		<path class="st0" d="M225.2,196.2c0-5.6,0.1-11.3,0-16.9c0-1.5,0.6-2,1.8-2.1c2.7-0.2,5.2-1.4,7.8-2.2c1.1-0.3,1.5-0.3,1.4,1
			c-0.5,8.3-0.9,16.6-1.3,24.8c-0.2,3.3-0.3,6.5-0.5,9.8c0,0.8,0.3,1.3,0.9,1.7c1.2,0.9,2.5,1.9,3.7,2.9c0.5,0.3,0.6,0.6,0.2,1.1
			c-0.8,1-1.6,2-2.4,2.9c-1.1,1.1-2,2.4-2.8,3.7c-0.5,0.8-0.9,0.9-1.7,0.6c-4.7-1.9-7.4-5.9-7.4-10.9c0-2.8,0-5.5,0-8.2s0-5.5,0-8.2
			C224.9,196.2,225,196.2,225.2,196.2z"/>
		<path class="st0" d="M276.1,195.3c0-5.3,0-10.6,0-15.9c0-1.4,0.4-2,1.7-2.2c2.8-0.3,5.4-1.5,8-2.2c1-0.3,1.3-0.2,1.2,0.9
			c-0.5,8.3-0.9,16.6-1.3,24.8c-0.2,3.4-0.3,6.7-0.5,10.1c0,0.6,0.2,1.1,0.7,1.4c0.6,0.5,1.3,0.9,1.9,1.5c1.6,1.5,1.6,3.1,0.3,4.8
			c-1.1,1.4-2.3,2.9-3.3,4.4c-0.5,0.8-1,1-1.9,0.6c-4.4-1.8-6.8-5.1-7.3-9.8c-0.6-5.5,0.2-11,0.2-16.5c0-0.7,0.1-1.3,0.1-2
			C276,195.3,276,195.3,276.1,195.3z"/>
		<path class="st1" d="M199.2,228.7c1.9,0,3.8-0.1,5.6,0.4c3.6,0.9,5.1,4.7,3.1,7.8c-0.6,0.9-0.7,1.3,0.1,2.2
			c2.4,2.7,1.2,7.8-2.2,9.1c-3.4,1.3-7,0.6-10.5,0.5c-0.8,0-0.6-0.7-0.6-1.2c0.1-2.6,0.3-5.2,0.3-7.8c0-3.1-0.1-6.2-0.3-9.4
			c-0.1-1.2,0.4-1.5,1.4-1.4C197.1,228.7,198.1,228.7,199.2,228.7z M201.4,244.1c1.1,0,2.2,0,2.5-1.2c0.2-0.8,0-1.7-0.8-2.1
			c-1.1-0.5-2.3-0.4-3.4-0.1c-0.1,0-0.1,0.2-0.2,0.2C198.8,242.4,199.7,244.1,201.4,244.1z M201.2,232.8c-1.7,0-1.7,0-1.8,1.6
			c-0.1,1.2,0.2,1.7,1.5,1.7c1.8-0.1,2.7-0.5,2.8-1.5C203.7,233.5,202.9,232.9,201.2,232.8z"/>
		<path class="st1" d="M210.3,238.4c-0.4-3.2,0.9-5.9,3.3-8.2c3-2.8,8.3-2.8,10.8,0.1c2.9,3.4,4,7.3,2.8,11.6c-0.6,2-1.7,4-3.3,5.3
			c-3.3,2.7-8,2.3-10.9-0.9C211.4,244.6,209.9,242.7,210.3,238.4z M223.1,238.3c0.1-0.5-0.1-1.1-0.3-1.7c-0.9-3-4-3.8-6.4-1.7
			c-1.7,1.6-2.1,4.5-0.9,6.8c0.9,1.7,2.9,2.4,4.7,1.7C222.1,242.5,223.1,240.9,223.1,238.3z"/>
		<path class="st1" d="M245.6,238.6c0-2.8,0-5.7,0-8.5c0-0.9,0.2-1.3,1.1-1.4c2.6-0.1,5.1-0.2,7.6,0.2c3.4,0.6,5.6,2.5,6.5,6.1
			c0.9,3.7,0.6,7.2-1.5,10.4c-1.3,2-3.3,3-5.6,3.1c-2.3,0.1-4.7,0-7,0c-1,0-1.1-0.4-1.1-1.3C245.6,244.4,245.6,241.5,245.6,238.6z
			 M250.4,238.6L250.4,238.6c0,1,0,2.1,0,3.1c0,2.2,0.6,2.7,2.8,2.2c0.4-0.1,0.8-0.3,1.2-0.5c2.3-1.4,3.3-6,1.6-8.1
			c-1.1-1.4-2.5-2.4-4.5-2.1c-0.8,0.1-1.2,0.4-1.1,1.3C250.4,235.9,250.4,237.2,250.4,238.6z"/>
		<path class="st1" d="M229.6,238.5c0-2.8,0-5.7,0-8.5c0-0.8,0.2-1.2,1.1-1.2c2.3,0,4.7-0.2,7-0.2c2.6,0.1,4.8,1.1,5.7,3.7
			c1,2.7,0.9,5.4-1.3,7.5c-1,0.9-0.9,1.7-0.3,2.6c0.9,1.6,1.5,3.4,2.2,5.1c0.3,0.8,0.1,1.1-0.7,1c0,0-0.1,0-0.2,0
			c-3.9,0.2-3.9,0.2-5.2-3.4c-0.3-0.8-0.6-1.5-0.9-2.3c-0.4-1.1-1.4-1.1-2.2-0.9c-0.9,0.2-0.4,1-0.4,1.6c0,1.3,0.1,2.6,0.2,3.8
			c0.1,0.8-0.1,1.2-1,1.2c-4.1,0.2-4.1,0.3-4-3.8C229.6,242.7,229.6,240.6,229.6,238.5L229.6,238.5z M235.8,238.1
			c2.5,0,3.6-1.1,3.2-3.1c-0.2-1.4-1.6-2.2-3.5-2.1c-1.6,0.1-1.2,1.2-1.2,2.2c0,0.4,0,0.9,0,1.3C234,237.9,234.7,238.3,235.8,238.1z
			"/>
		<path class="st1" d="M277.6,238.6c0.1-2.9,0.2-5.8,0-8.7c0-0.6-0.1-1.1,0.7-1.1c3-0.1,6-0.5,8.9,0c2.3,0.4,3.8,1.9,4.4,4.1
			c0.7,2.6,0.4,5.1-1.7,7.1c-0.9,0.9-0.5,1.7-0.1,2.6c0.8,1.6,1.4,3.2,2.1,4.8c0.3,0.7,0.3,1.1-0.7,1.1c-3.9,0.2-3.9,0.3-5.3-3.4
			c-0.3-0.7-0.5-1.4-0.8-2.1c-0.3-0.9-0.9-1.2-1.9-1.1c-0.7,0-1,0.3-1,1c0.1,1.6,0.2,3.1,0.3,4.7c0.1,0.8-0.2,1-0.9,1
			c-5-0.1-4.1,0.8-4-4C277.6,242.6,277.6,240.6,277.6,238.6z M283.7,238.1c2.7,0.1,4-1.6,3.1-3.7c-0.5-1.1-2.2-1.8-3.7-1.5
			c-1.4,0.3-0.7,1.4-0.8,2.2c-0.1,0.4,0,0.9,0,1.3C282,237.8,282.7,238.3,283.7,238.1z"/>
		<path class="st1" d="M263.3,238.7c0-2.9,0-5.9,0-8.8c0-0.9,0.2-1.2,1.1-1.2c3.2,0.2,6.4,0.2,9.6,0c0.7,0,1.2,0.1,1.1,1
			c0,1.3,0.8,2.8,0.1,3.7c-0.7,0.9-2.3-0.1-3.5,0c-0.8,0.1-1.5,0-2.3,0c-0.9-0.1-1.3,0.3-1.2,1.2c0,0.8,0.1,1.5,1.2,1.5
			c1.6-0.1,3.1,0,4.7-0.2c0.9-0.1,1.1,0.2,1,0.9c-0.1,1.1-0.1,2.2-0.1,3.3c0,0.6-0.2,1-0.9,0.8c-1.5-0.3-3-0.2-4.5-0.2
			c-0.6,0-1.4-0.2-1.4,0.9c0,0.9-0.1,1.9,1.2,2c1.7,0.1,3.3,0.2,5-0.2c1.2-0.2,1.5,0.2,1.4,1.3s0,2.6-0.6,3.4
			c-0.8,1-2.2,0.2-3.3,0.2c-2.3,0.1-4.7-0.1-7.1,0c-1.3,0.1-1.6-0.5-1.5-1.6c0.1-2.8,0-5.5,0-8.2
			C263.3,238.7,263.3,238.7,263.3,238.7z"/>
		<path class="st2" d="M201.4,244.1c-1.7,0-2.7-1.7-1.9-3.2c0-0.1,0.1-0.2,0.2-0.2c1.2-0.3,2.3-0.4,3.4,0.1c0.8,0.4,1.1,1.2,0.8,2.1
			C203.6,244.1,202.5,244.1,201.4,244.1z"/>
		<path class="st2" d="M201.2,232.8c1.7,0,2.5,0.6,2.5,1.8c0,1.1-0.9,1.5-2.8,1.5c-1.3,0-1.6-0.5-1.5-1.7
			C199.5,232.8,199.5,232.8,201.2,232.8z"/>
	</g>
</g>
<g id="Layer_2_1_">
	<path class="st5" d="M331.8,240.2l-0.7,6.5c-1.9,10.4-7.7,20.6-26.6,24.3l-5.2,1.2c-78.8,10.7-109.1-6.4-137,4.5
		c-3.9,0.6-10.9,8.9-10.2,10.1c1.1,1.7-22.6,7.1-22.6,7.1l2.9-13c3.5-7.1,10.2-19.6,30.9-23.7l0,0c10.2-3.4,58.4-0.3,66.3,1.1
		c35.2,6.1,64.6-0.7,69.7-0.6c11.3,0.1,21.5-12.5,20.3-33.4c0-0.2-0.4-22.6-0.4-22.8l-0.9-29.3c0.2-1.5-0.9-2.8-2.3-3l-173.4-15.7
		l-1.8-36.3l-29.7-6.7c-2.5-0.6-4.3-2.9-4.1-5.5l0.4-6c0.2-2.6,2.6-4.4,5.2-3.9l33.7,7c2.5,0.6,4.5,2.3,5.4,4.7l0.6,1.9l1.3,25.9
		l179.7,20.6c2,0.6,2.6,1.9,3.1,3.3L331.8,240.2z"/>
</g>
<g id="Layer_3">
	<line class="st6" x1="171.6" y1="303" x2="298.6" y2="303"/>
	<path class="st7" d="M281.5,325.2c-7.3-0.3-13.6-3.2-18.2-10c-2.8-4.3-4.1-9.1-3.5-14.4c0.7-7.6,4.3-13.2,10-17
		c4.4-3,9.4-4.1,14.5-3.3c6.9,0.9,12.4,4.4,16.2,11c4.9,8.6,3.5,19.9-3.2,26.9c-3.6,3.7-7.9,5.8-12.7,6.6c-0.4,0.1-0.8,0.2-1.2,0.2
		C282.8,325.2,282.2,325.2,281.5,325.2z"/>
	<path class="st8" d="M149.8,325.1c-9.4-0.4-17.4-4.2-23.3-12.9c-3.6-5.5-5.2-11.7-4.5-18.4c0.9-9.7,5.5-16.9,12.8-21.8
		c5.7-3.8,12-5.2,18.6-4.3c8.8,1.2,15.8,5.7,20.8,14.2c6.3,11.1,4.5,25.6-4.2,34.6c-4.6,4.8-10.1,7.5-16.2,8.4
		c-0.6,0.1-1,0.3-1.6,0.3C151.4,325.2,150.6,325.1,149.8,325.1z"/>
</g>
</svg>
